<svg width="352" height="129" viewBox="0 0 352 129" xmlns="http://www.w3.org/2000/svg">
  <defs>
    <mask id="ticketMask">
      <!-- پس‌زمینه سفید -->
      <rect width="352" height="129" fill="white"/>
      
      <!-- برش دایره بالا -->
      <circle cx="176" cy="0" r="8.5" fill="black"/>
      
      <!-- برش دایره پایین -->
      <circle cx="176" cy="129" r="8.5" fill="black"/>
      
      <!-- خط چین میانی -->
      <rect x="175.5" y="8.5" width="1" height="3" fill="black"/>
      <rect x="175.5" y="14.5" width="1" height="3" fill="black"/>
      <rect x="175.5" y="20.5" width="1" height="3" fill="black"/>
      <rect x="175.5" y="26.5" width="1" height="3" fill="black"/>
      <rect x="175.5" y="32.5" width="1" height="3" fill="black"/>
      <rect x="175.5" y="38.5" width="1" height="3" fill="black"/>
      <rect x="175.5" y="44.5" width="1" height="3" fill="black"/>
      <rect x="175.5" y="50.5" width="1" height="3" fill="black"/>
      <rect x="175.5" y="56.5" width="1" height="3" fill="black"/>
      <rect x="175.5" y="62.5" width="1" height="3" fill="black"/>
      <rect x="175.5" y="68.5" width="1" height="3" fill="black"/>
      <rect x="175.5" y="74.5" width="1" height="3" fill="black"/>
      <rect x="175.5" y="80.5" width="1" height="3" fill="black"/>
      <rect x="175.5" y="86.5" width="1" height="3" fill="black"/>
      <rect x="175.5" y="92.5" width="1" height="3" fill="black"/>
      <rect x="175.5" y="98.5" width="1" height="3" fill="black"/>
      <rect x="175.5" y="104.5" width="1" height="3" fill="black"/>
      <rect x="175.5" y="110.5" width="1" height="3" fill="black"/>
      <rect x="175.5" y="116.5" width="1" height="3" fill="black"/>
    </mask>
  </defs>
  
  <!-- شکل بلیط با ماسک -->
  <rect width="352" height="129" rx="13" fill="white" mask="url(#ticketMask)"/>
</svg>
